name ./resultDataOpenSim/trcMotMarkerGrf/sub09/grf-02-06.mot
datacolumns 19
datarows 20
range 0.48400000 0.56000000
endheader

                time	     ground_force_vx	     ground_force_vy	     ground_force_vz	     ground_force_px	     ground_force_py	     ground_force_pz	   l_ground_force_vx	   l_ground_force_vy	   l_ground_force_vz	   l_ground_force_px	   l_ground_force_py	   l_ground_force_pz	     ground_torque_x	     ground_torque_y	     ground_torque_z	   l_ground_torque_x	   l_ground_torque_y	   l_ground_torque_z	
          0.48400000	         36.12889050	        397.89763007	        -21.33193303	         -0.72830054	          0.00000000	          0.12566574	          0.00000000	          0.00000000	          0.00000000	          0.00000000	          0.00000000	          0.00000000	          0.00000000	          4.85384640	          0.00000000	          0.00000000	          0.00000000	          0.00000000	
          0.48800000	         39.63099027	        409.17430067	        -23.21293230	         -0.72646929	          0.00000000	          0.12605042	          0.00000000	          0.00000000	          0.00000000	          0.00000000	          0.00000000	          0.00000000	          0.00000000	          4.93288256	          0.00000000	          0.00000000	          0.00000000	          0.00000000	
          0.49200000	         43.43440365	        421.29839843	        -24.76533674	         -0.72460028	          0.00000000	          0.12637588	          0.00000000	          0.00000000	          0.00000000	          0.00000000	          0.00000000	          0.00000000	          0.00000000	          5.04114081	          0.00000000	          0.00000000	          0.00000000	          0.00000000	
          0.49600000	         47.45868700	        434.26094813	        -25.91849421	         -0.72270126	          0.00000000	          0.12663969	          0.00000000	          0.00000000	          0.00000000	          0.00000000	          0.00000000	          0.00000000	          0.00000000	          5.18706577	          0.00000000	          0.00000000	          0.00000000	          0.00000000	
          0.50000000	         51.58890883	        448.06066254	        -26.70515067	         -0.72076390	          0.00000000	          0.12684710	          0.00000000	          0.00000000	          0.00000000	          0.00000000	          0.00000000	          0.00000000	          0.00000000	          5.36603938	          0.00000000	          0.00000000	          0.00000000	          0.00000000	
          0.50400000	         55.70539359	        462.70404502	        -27.26227186	         -0.71877311	          0.00000000	          0.12700367	          0.00000000	          0.00000000	          0.00000000	          0.00000000	          0.00000000	          0.00000000	          0.00000000	          5.55903313	          0.00000000	          0.00000000	          0.00000000	          0.00000000	
          0.50800000	         59.71299405	        478.20082159	        -27.80877583	         -0.71672416	          0.00000000	          0.12711757	          0.00000000	          0.00000000	          0.00000000	          0.00000000	          0.00000000	          0.00000000	          0.00000000	          5.73543988	          0.00000000	          0.00000000	          0.00000000	          0.00000000	
          0.51200000	         63.56181341	        494.55140035	        -28.60014094	         -0.71462833	          0.00000000	          0.12718696	          0.00000000	          0.00000000	          0.00000000	          0.00000000	          0.00000000	          0.00000000	          0.00000000	          5.85976418	          0.00000000	          0.00000000	          0.00000000	          0.00000000	
          0.51600000	         67.24776519	        511.71521498	        -29.86219624	         -0.71251293	          0.00000000	          0.12721276	          0.00000000	          0.00000000	          0.00000000	          0.00000000	          0.00000000	          0.00000000	          0.00000000	          5.90069151	          0.00000000	          0.00000000	          0.00000000	          0.00000000	
          0.52000000	         70.79317964	        529.57709571	        -31.71274590	         -0.71041005	          0.00000000	          0.12720054	          0.00000000	          0.00000000	          0.00000000	          0.00000000	          0.00000000	          0.00000000	          0.00000000	          5.84033196	          0.00000000	          0.00000000	          0.00000000	          0.00000000	
          0.52400000	         74.22035800	        547.95486846	        -34.09169355	         -0.70834742	          0.00000000	          0.12714275	          0.00000000	          0.00000000	          0.00000000	          0.00000000	          0.00000000	          0.00000000	          0.00000000	          5.68123659	          0.00000000	          0.00000000	          0.00000000	          0.00000000	
          0.52800000	         77.53364021	        566.64881299	        -36.73385182	         -0.70634111	          0.00000000	          0.12701327	          0.00000000	          0.00000000	          0.00000000	          0.00000000	          0.00000000	          0.00000000	          0.00000000	          5.44912146	          0.00000000	          0.00000000	          0.00000000	          0.00000000	
          0.53200000	         80.72191553	        585.48579830	        -39.21901510	         -0.70440847	          0.00000000	          0.12676940	          0.00000000	          0.00000000	          0.00000000	          0.00000000	          0.00000000	          0.00000000	          0.00000000	          5.19014185	          0.00000000	          0.00000000	          0.00000000	          0.00000000	
          0.53600000	         83.78337379	        604.32632323	        -41.09177963	         -0.70256865	          0.00000000	          0.12637635	          0.00000000	          0.00000000	          0.00000000	          0.00000000	          0.00000000	          0.00000000	          0.00000000	          4.96289336	          0.00000000	          0.00000000	          0.00000000	          0.00000000	
          0.54000000	         86.75601431	        623.04626071	        -41.98078710	         -0.70084301	          0.00000000	          0.12582572	          0.00000000	          0.00000000	          0.00000000	          0.00000000	          0.00000000	          0.00000000	          0.00000000	          4.82665408	          0.00000000	          0.00000000	          0.00000000	          0.00000000	
          0.54400000	         89.72840935	        641.51956245	        -41.65814397	         -0.69925253	          0.00000000	          0.12513403	          0.00000000	          0.00000000	          0.00000000	          0.00000000	          0.00000000	          0.00000000	          0.00000000	          4.82829843	          0.00000000	          0.00000000	          0.00000000	          0.00000000	
          0.54800000	         92.82255692	        659.62278510	        -40.05730291	         -0.69780771	          0.00000000	          0.12433259	          0.00000000	          0.00000000	          0.00000000	          0.00000000	          0.00000000	          0.00000000	          0.00000000	          4.99069886	          0.00000000	          0.00000000	          0.00000000	          0.00000000	
          0.55200000	         96.16480605	        677.25866827	        -37.28606270	         -0.69650550	          0.00000000	          0.12346230	          0.00000000	          0.00000000	          0.00000000	          0.00000000	          0.00000000	          0.00000000	          0.00000000	          5.30535744	          0.00000000	          0.00000000	          0.00000000	          0.00000000	
          0.55600000	         99.86515698	        694.36256257	        -33.62507720	         -0.69533449	          0.00000000	          0.12256937	          0.00000000	          0.00000000	          0.00000000	          0.00000000	          0.00000000	          0.00000000	          0.00000000	          5.73136743	          0.00000000	          0.00000000	          0.00000000	          0.00000000	
          0.56000000	        104.01119194	        710.87378436	        -29.49270150	         -0.69427493	          0.00000000	          0.12170052	          0.00000000	          0.00000000	          0.00000000	          0.00000000	          0.00000000	          0.00000000	          0.00000000	          6.20144517	          0.00000000	          0.00000000	          0.00000000	          0.00000000	
